<?xml version="1.0" standalone="no"?>
<!DOCTYPE svg PUBLIC "-//W3C//DTD SVG 20010904//EN"
 "http://www.w3.org/TR/2001/REC-SVG-20010904/DTD/svg10.dtd">
<svg version="1.0" xmlns="http://www.w3.org/2000/svg"
 width="205.000000pt" height="205.000000pt" viewBox="0 0 205.000000 205.000000"
 preserveAspectRatio="xMidYMid meet">
<metadata>
Created by potrace 1.14, written by Peter Selinger 2001-2017
</metadata>
<g transform="translate(0.000000,205.000000) scale(0.100000,-0.100000)"
fill="#000000" stroke="none">
<path d="M0 1025 l0 -1025 1025 0 1025 0 0 1025 0 1025 -1025 0 -1025 0 0
-1025z m972 853 c22 -6 62 -31 88 -55 l48 -43 32 17 c41 20 126 21 165 0 17
-8 49 -35 71 -59 23 -23 56 -56 73 -71 21 -19 36 -47 47 -85 8 -31 20 -69 26
-84 l10 -26 36 25 c29 19 45 24 76 20 89 -12 166 -104 166 -200 0 -51 -18
-127 -30 -127 -3 0 -16 14 -28 30 -25 33 -52 40 -52 12 0 -10 -7 -27 -15 -38
-14 -18 -14 -17 -15 14 0 29 -3 32 -30 32 -27 0 -30 -3 -30 -33 0 -37 -21 -73
-38 -63 -6 3 -13 20 -17 36 -5 23 -12 30 -31 30 -20 0 -23 -4 -18 -27 2 -16 0
-34 -5 -42 -12 -18 -41 -7 -48 19 -6 21 -17 26 -78 36 -22 3 -48 10 -57 15
-10 5 -37 11 -60 13 -24 2 -61 9 -83 15 -22 6 -66 11 -97 11 -51 0 -64 -5
-116 -40 -40 -27 -76 -43 -117 -51 -63 -11 -77 -23 -85 -74 -4 -24 -11 -31
-32 -33 -25 -3 -28 0 -28 27 0 16 5 33 10 36 6 3 10 19 10 36 0 39 -48 69
-111 69 -47 0 -63 -9 -134 -80 -28 -27 -38 -25 -73 15 -80 90 -65 263 27 320
17 11 50 35 73 53 22 17 50 35 63 38 18 5 23 14 28 57 10 78 44 134 117 191
35 27 80 56 100 62 45 17 112 17 162 2z m-394 -710 c18 -18 14 -53 -8 -73 -16
-15 -22 -15 -35 -5 -15 12 -21 71 -8 83 10 11 38 8 51 -5z m447 -178 c77 -6
158 -12 180 -15 22 -2 55 -4 73 -4 17 -1 32 -6 32 -12 0 -8 -109 -10 -370 -7
-204 1 -370 0 -370 -4 0 -5 -4 -8 -8 -8 -17 0 -8 30 10 36 71 22 257 28 453
14z m555 -40 c0 -5 -16 -10 -36 -10 -21 0 -33 4 -29 10 3 6 19 10 36 10 16 0
29 -4 29 -10z m-779 -42 c0 -10 2 -10 6 0 3 7 24 12 54 12 32 0 49 -4 50 -12
0 -10 2 -10 6 0 2 6 11 12 19 12 11 0 14 -28 16 -147 l2 -148 3 148 c3 121 6
147 18 147 13 0 15 -29 17 -182 1 -140 3 -167 8 -113 4 39 8 118 9 178 l1 107
25 0 25 0 1 -127 c1 -118 2 -126 15 -98 10 22 12 51 8 107 -7 94 -1 118 32
118 l24 0 0 -132 c0 -72 3 -128 7 -125 3 4 5 40 4 82 -3 110 7 165 30 165 18
0 19 -10 19 -150 0 -82 4 -150 8 -150 4 0 13 5 20 12 21 21 31 -5 34 -92 3
-77 1 -85 -17 -88 -11 -3 -30 -15 -42 -29 -18 -19 -27 -22 -42 -13 -18 9 -20
6 -23 -32 -3 -38 -6 -43 -28 -43 -23 0 -25 4 -28 57 -3 61 9 98 34 98 8 0 19
-10 24 -23 6 -16 9 -17 9 -5 1 9 7 21 14 25 8 4 16 18 19 30 4 16 0 23 -15 27
-18 4 -19 10 -14 60 3 32 2 56 -4 56 -5 0 -9 -13 -9 -29 0 -57 -37 -60 -54 -3
-12 38 -25 24 -28 -30 -2 -42 -7 -54 -21 -56 -10 -2 -24 4 -32 14 -11 16 -13
12 -20 -34 -7 -51 -7 -52 -42 -52 -32 0 -35 -2 -29 -22 3 -13 6 -29 6 -37 0
-8 3 -12 6 -8 3 3 19 1 34 -5 l29 -9 0 -125 0 -125 -27 3 c-22 2 -28 9 -30 33
-2 19 0 25 6 17 10 -15 32 49 32 96 0 25 -4 30 -30 34 -17 3 -30 0 -31 -6 0
-6 0 -48 1 -93 1 -83 1 -83 -25 -83 l-26 0 3 115 c1 63 -1 117 -5 121 -4 4 -7
-47 -7 -114 l0 -122 -30 0 -30 0 -2 183 -3 182 -2 -183 -3 -183 -28 3 -27 3
-6 115 -5 115 -2 -112 -2 -113 -37 1 c-21 1 -30 3 -20 6 18 5 18 14 12 141 -6
119 -12 167 -30 232 -14 53 -16 78 -6 84 6 4 9 2 6 -6 -7 -20 74 -75 130 -89
28 -6 56 -16 63 -22 21 -17 35 8 33 59 -2 60 -11 72 -11 16 0 -23 -2 -42 -3
-42 -11 0 -119 40 -148 55 -48 25 -114 80 -141 118 l-22 32 47 -38 c26 -21 44
-31 41 -23 -3 9 -9 16 -13 16 -9 0 -9 -3 -17 138 l-7 112 107 0 c78 0 106 -3
107 -12z m718 -60 c-1 -47 -3 -57 -9 -38 -12 36 -12 100 0 100 6 0 10 -27 9
-62z m10 -260 l-1 -53 -8 40 c-7 36 -4 65 6 65 2 0 3 -24 3 -52z m-468 -222
c1 -11 2 -72 3 -133 l1 -113 -29 0 -28 0 5 58 c3 31 0 87 -6 124 -8 51 -8 70
1 81 17 21 52 10 53 -17z m79 -167 l0 -79 -31 0 c-31 0 -31 1 -25 37 4 21 9
59 13 84 5 39 8 46 24 42 17 -5 19 -15 19 -84z m60 6 c0 -84 0 -85 -25 -85
-16 0 -25 6 -25 16 0 8 4 13 9 9 5 -3 13 25 16 62 7 66 11 83 21 83 2 0 4 -38
4 -85z"/>
<path d="M914 650 c0 -80 2 -112 3 -72 2 39 2 105 0 145 -1 39 -3 7 -3 -73z"/>
<path d="M1203 485 c0 -22 2 -30 4 -17 2 12 2 30 0 40 -3 9 -5 -1 -4 -23z"/>
<path d="M905 360 c-3 -5 -1 -10 4 -10 6 0 11 5 11 10 0 6 -2 10 -4 10 -3 0
-8 -4 -11 -10z"/>
</g>
</svg>
